<svg class="w-6" viewBox="0 0 1024 1024" xmlns="http://www.w3.org/2000/svg"><defs><style/></defs><path d="M1024 512.006c0 282.763-229.224 511.992-511.998 511.992C229.24 1024 0 794.771 0 512.006 0 229.23 229.24 0 512 0c282.774 0 512 229.229 512 512.006zM512 76.793c-240.351 0-435.195 194.846-435.195 435.213 0 240.354 194.844 435.2 435.195 435.2 240.362 0 435.208-194.846 435.208-435.2C947.208 271.64 752.362 76.793 512 76.793z" fill="#2c2c2c"/><path d="M555.23 330.203V222.204h-68.194v108.04h-223.6v273.464h223.602v210.971h68.194V603.708h224.223V330.203H555.23zM487.038 539.27h-157.34V394.665h157.34V539.27zm226.13 0H555.205V394.665h157.961V539.27z" fill="#2c2c2c"/></svg>